<svg xmlns="http://www.w3.org/2000/svg" height="800" width="1200" viewBox="-27.357 -13.251975 237.094 79.51185"><path d="M0 21.6079h11.43v-11.8h26.91v-9.8H0zm0 31.4h38.34v-9.8H11.43v-11.8H0z" fill="red"/><path d="M11.43 21.6079h24.61v9.8H11.43zM86 4.8779a16.12 16.12 0 00-5.68-3.53 23.76 23.76 0 00-8.5-1.34H48.14v53h11.43v-21.6h12.25a23.76 23.76 0 008.46-1.34 16.12 16.12 0 005.72-3.53 13.43 13.43 0 003.19-5 17.38 17.38 0 000-11.62 13.52 13.52 0 00-3.19-5.04zm-8 13.86a5.7 5.7 0 01-2.26 1.8 11.33 11.33 0 01-3.27.85 32 32 0 01-3.86.22h-9.04v-11.8h9.05a32 32 0 013.86.22 11 11 0 013.27.86 5.59 5.59 0 012.25 1.79 5 5 0 01.86 3 5 5 0 01-.86 3.06zm77.47 24.47v-43.2h-11.43v53h38.34v-9.8zm-58.05-21.6h11.43v-11.8h26.91v-9.8H97.42zm0 9.8h11.43v21.6H97.42zm11.43-9.8h24.61v9.8h-24.61z" fill="red"/></svg>